<svg width="1920" height="366" viewBox="0 0 1920 366" fill="none" xmlns="http://www.w3.org/2000/svg">
<g clip-path="url(#clip0)">
<path d="M0 219.6L80 213.461C160 207.794 320 194.806 480 213.461C640 231.406 800 280.994 960 274.5C1120 268.006 1280 207.794 1440 152.539C1600 97.9935 1760 48.4065 1920 42.7394C2080 36.6 2240 73.2 2400 85.3607C2560 97.9936 2720 85.0065 2880 97.6394C3040 109.8 3200 146.4 3360 158.561C3520 171.194 3680 158.206 3840 176.861C4000 194.806 4160 244.394 4320 268.361C4480 292.8 4640 292.8 4800 262.339C4960 231.406 5120 171.194 5280 164.7C5440 158.206 5600 207.794 5760 219.6C5920 231.406 6080 207.794 6240 195.161C6400 183 6560 183 6720 195.161C6880 207.794 7040 231.406 7200 207.439C7360 183 7520 109.8 7680 121.961C7840 134.594 8000 231.406 8160 250.061C8320 268.006 8480 207.794 8640 158.561C8800 109.8 8960 73.2 9120 85.3607C9280 97.9936 9440 158.206 9600 176.861C9760 194.806 9920 171.194 10080 134.239C10240 97.9935 10400 48.4065 10560 42.7394C10720 36.6 10880 73.2 11040 109.8C11200 146.4 11360 183 11440 201.3L11520 219.6V366H11440C11360 366 11200 366 11040 366C10880 366 10720 366 10560 366C10400 366 10240 366 10080 366C9920 366 9760 366 9600 366C9440 366 9280 366 9120 366C8960 366 8800 366 8640 366C8480 366 8320 366 8160 366C8000 366 7840 366 7680 366C7520 366 7360 366 7200 366C7040 366 6880 366 6720 366C6560 366 6400 366 6240 366C6080 366 5920 366 5760 366C5600 366 5440 366 5280 366C5120 366 4960 366 4800 366C4640 366 4480 366 4320 366C4160 366 4000 366 3840 366C3680 366 3520 366 3360 366C3200 366 3040 366 2880 366C2720 366 2560 366 2400 366C2240 366 2080 366 1920 366C1760 366 1600 366 1440 366C1280 366 1120 366 960 366C800 366 640 366 480 366C320 366 160 366 80 366H0V219.6Z" fill="url(#paint0_linear)"/>
</g>
<defs>
<linearGradient id="paint0_linear" x1="0" y1="366" x2="0" y2="42.0507" gradientUnits="userSpaceOnUse">
<stop stop-color="white"/>
<stop offset="1" stop-color="white"/>
</linearGradient>
<clipPath id="clip0">
<rect width="1920" height="366" fill="white"/>
</clipPath>
</defs>
</svg>
